/* XPM */
static char *c0a6da1698824847e88fa9eedcba06699mbyyiKWFfhaM1Ri[] = {
/* columns rows colors chars-per-pixel */
"64 64 5 1 ",
"  c None",
". c #55322B",
"X c #663931",
"o c #95447B",
"O c #D77BBA",
/* pixels */
"                                                                ",
"                            XXX     XXXX                        ",
"                            XXX     XXXX                        ",
"                X             X       XX   XXX     X            ",
"               XX     ooo     XXoOOO  XXoOo  X    XX            ",
"               XX     ooo     XXoOOO  XXoOo  X    XX            ",
"                X    oOooOo XXOoOooOOXXXOOOooOoO  X             ",
"                XXXXXOOooOOXXXoOOOOOOO  OOoOOOOoOOX             ",
"  XXX  Xoo o     O  XOOOOOOX  OOOOOOO   ooOOOOOOooX             ",
"  XXX  Xoo o     O  XOOOOOOX  OOOOOOO   ooOOOOOOooX             ",
"   XXX XXXooo  o OooXOoooOOX  oOoOOOoO   OoOOOOOOO  XXX         ",
"     X  OOOOo  oOOOOOOOOOoOOooOoOOOoOOOO OoooOoooooOooo  X..XX  ",
"     X  OOOOo  oOOOOOOOOOoOOooOoOOOoOOOO OoooOoooooOooo  X..XX  ",
"     XXOooOOO  oOOOOoOOOOOooOOO  OOOOOoooOO     ooOOOOOo .      ",
" XXXXXXOOOOOo  OoOOOOOOOOoOOOOOo OOOoOOOooOOOO  OOOoOOOOXX      ",
" XXXXXXOOOOOo  OoOOOOOOOOoOOOOOo OOOoOOOooOOOO  OOOoOOOOXX      ",
"       oOOOo      oooOoOOOooOOOo XXOoOOOOoOOOO  ooOOoOOoX       ",
"      o ooOooooO  XXOOOOOOOooooXXOOoOOOOoooooO .XXoOOOOOoO   X  ",
"     oO OOOOOOOoO XXoOOoooOOOOO XOOOOOooOOOOOo X..  oooOoo  XX  ",
"     oO OOOOOOOoO XXoOOoooOOOOO XOOOOOooOOOOOo X..  oooOoo  XX  ",
"     oO ooOOOooOoXooOOOOOOX    oOOOOOOoooooooO XOOOOOOOOOOOO    ",
"      OoOOOooOOOOoOOOOOOOOXOOOOoOOOOOoOOOOOooOOoOOOooOOOOoOO    ",
"      OoOOOooOOOOoOOOOOOOOXOOOOoOOOOOoOOOOOooOOoOOOooOOOOoOO    ",
"     OOOOOOOOOOOOOOOoooOOOooOOOOoooOOOOOOoOooOOoooOoOOOoOOOO    ",
"     oOOooOoOooOOoooOOoOOoOOoooOOOOoOOOOoOOOOOOOOOOOoooOOOOO    ",
"     oOOooOoOooOOoooOOoOOoOOoooOOOOoOOOOoOOOOOOOOOOOoooOOOOO    ",
"      oOOOOOOOOOoOOOOOoooOoOOOOoOOOOooooOOOOOoOOOOoOOooooo      ",
"        ooOXXOOOoOoooOOOOOOoOOoOOOOOOOOOOOOooOOOooOOOOOO        ",
"        ooOXXOOOoOoooOOOOOOoOOoOOOOOOOOOOOOooOOOooOOOOOO        ",
"          oOoOOoOOOOOoOOOOXoOOOOOooOOOooOOoOOOooOOOOOooO        ",
"           XXOOOOOooOOOooOOXOOOOOOOoOooooooOOOOOOOoOOOOO        ",
"            XooOOoOOOOOOOoOXooOOOOOXOoooOOOooOOoOOOOOOOoO   X.  ",
"            XooOOoOOOOOOOoOXooOOOOOXOoooOOOooOOoOOOOOOOoO   X.  ",
"            oOOOooOOOoOooOO.XXoooOOOOoOOOOOoooOOOOOOoooOOoXX.   ",
"           oOOOoOOooOOOooOOXXXXXXXX. OOOOoOOO oOoooOoOOOOOOO    ",
"           oOOOoOOooOOOooOOXXXXXXXX. OOOOoOOO oOoooOoOOOOOOO    ",
"           OOooOOOooOOoOOOo.XXXXX... oooOOo    oOOOXOOOOoOoo    ",
"           oOOOOo     oOOoX...XX.XXX.   oo           oooOOoo    ",
"           oOOOOo     oOOoX...XX.XXX.   oo           oooOOoo    ",
"           oOOOo  ..  XXX .XXX.XX..XX.                 oOo      ",
"            oOO   ..X.X.. .XXXXXX...XX..                        ",
"                          ..XX.XXXX..XXX.                       ",
"                          ..XX.XXXX..XXX.                       ",
"                          .XXX..XXXXXXXXX.                      ",
"                          .XXXX.XXX...XXX.                      ",
"                          .XXXX.XXX...XXX.                      ",
"                           .XXX.XXX.X...XX.                     ",
"                           .XXX..XX..X..X.X..                   ",
"                           .XXX..XX..X..X.X..                   ",
"                            ...X...XXX..X.X..                   ",
"                               .X..XX...X.X..                   ",
"                               .X..XX...X.X..                   ",
"                               .X.....XXX.X..                   ",
"                              .XXXXXXXXXX.X..                   ",
"                           ...XXXXX.XXXX.XX..                   ",
"                           ...XXXXX.XXXX.XX..                   ",
"                          .XXXXXX..XXX..XXX..                   ",
"                         .XXXXX..XXXX.XXXX.                     ",
"                         .XXXXX..XXXX.XXXX.                     ",
"                       ..XXX...XXXX..XXX.                       ",
"                      .XXXX.XXXXX...XXXXX.                      ",
"                      .XXXX.XXXXX...XXXXX.                      ",
"                     .XXXXXXXXXXXXXXXXXXXX.                     ",
"                      ....................                      "
};
