/* XPM */
static char *_21eec8388c94017e4b749d050c78981wZldqES4lWUKrZNV[] = {
/* columns rows colors chars-per-pixel */
"64 64 3 1 ",
"  c None",
". c #222034",
"X c #323C39",
/* pixels */
"..X.......X...X.......X....X......X.......X...X.......X....X....",
".........X........X...X............X........X.....X...X..X.XX.X.",
".........X...............................X......................",
"..X.......X...X.......X....X......X.......X...X.......X....X....",
"...X....................X...X......X....................X...X...",
"..................X...............................X.............",
"......X...X...X..X....................X...X...X..X..............",
".......X..X..X.........................X..X..X..................",
"........XXXXX...............X...........XXXXX...............X...",
"......................X.......X.......................X.......X.",
"...X.................X.......X.....X.................X.......X..",
"....X...............................X...........................",
"...........X.....X...X...X.................X.....X...X...X......",
"..........X...X...X..X..X.................X...X...X..X..X.......",
"...................XXXXX.....X.....................XXXXX.....X..",
"...X..........X...............X....X..........X...............X.",
"....X...............................X...........................",
".........X...............................X......................",
"..X.......X...X.......X....X......X.......X...X.......X....X....",
"...X....................X...X......X....................X...X...",
"..................X...............................X.............",
"......X...X...X..X....................X...X...X..X..............",
".......X..X..X.........................X..X..X..................",
"........XXXXX...............X...........XXXXX...............X...",
"......................X.......X.......................X.......X.",
"...X.................X.......X.....X.................X.......X..",
"....X...............................X...........................",
"...........X.....X...X...X.................X.....X...X...X......",
"..........X...X...X..X..X.................X...X...X..X..X.......",
"...................XXXXX.....X.....................XXXXX.....X..",
"...X..........X...............X....X..........X...............X.",
"....X...............................X...........................",
"................................................................",
"......................X...............................X.........",
"...........X...X...X.X.....................X...X...X.X..........",
"..X.....X...X..X..X.........X.....X.....X...X..X..X.........X...",
".........X...XXXXX...........X...........X...XXXXX...........X..",
"...X...................X...........X...................X........",
"......................X...............................X.........",
"..............X..X............................X..X..............",
"....X...............................X...........................",
".....X...............................X..........................",
"X...X...X............X...X...X..X...X...X............X...X...X..",
".X..X..X..............X..X..X....X..X..X..............X..X..X...",
"..XXXXX........X.......XXXXX......XXXXX........X.......XXXXX....",
"........X.....X.........................X.....X.................",
".......X...............................X........................",
".........X...............................X......................",
"..X.......X...X.......X....X......X.......X...X.......X....X....",
"...X....................X...X......X....................X...X...",
"..................X...............................X.............",
"......X...X...X..X....................X...X...X..X..............",
".......X..X..X.........................X..X..X..................",
"........XXXXX...............X...........XXXXX...............X...",
"......................X.......X.......................X.......X.",
"...X.................X.......X.....X.................X.......X..",
"....X...............................X...........................",
"...........X.....X...X...X.................X.....X...X...X......",
"..........X...X...X..X..X.................X...X...X..X..X.......",
"...................XXXXX.....X.....................XXXXX.....X..",
"...X..........X...............X....X..........X...............X.",
"....X...............................X...........................",
"..........X...X...X..X..X.................X...X...X..X..X.......",
"...................XXXXX.....X.....................XXXXX.....X..",
};
